<svg width="96" height="88" viewBox="0 0 96 88" fill="none" xmlns="http://www.w3.org/2000/svg">
<path fill-rule="evenodd" clip-rule="evenodd" d="M88.5014 88H96V67H88.5014V88ZM75 88H82.5012V67H75V88Z" fill="#272929"/>
<mask id="mask0" mask-type="alpha" maskUnits="userSpaceOnUse" x="0" y="0" width="75" height="88">
<path fill-rule="evenodd" clip-rule="evenodd" d="M0 0.983398H74.775V87.9996H0V0.983398Z" fill="white"/>
</mask>
<g mask="url(#mask0)">
<path fill-rule="evenodd" clip-rule="evenodd" d="M21.222 66.6819H31.0325C37.8222 66.6819 43.2736 64.663 47.3854 60.6267C51.4971 56.5903 53.5529 51.212 53.5529 44.4903C53.5529 37.7247 51.5087 32.3334 47.4201 28.3203C43.3316 24.3073 37.8686 22.3014 31.0325 22.3014H21.222V66.6819ZM13.6388 14.6881H31.0325C39.8897 14.6881 47.12 17.4329 52.7247 22.9187C58.3345 28.4058 61.1298 35.5972 61.1298 44.4903C61.1298 53.3395 58.3345 60.518 52.7247 66.027C47.12 71.5387 39.8897 74.2952 31.0325 74.2952H13.6388V14.6881ZM13.6388 8.5954V0.983398H31.3262C44.46 0.983398 54.9854 4.94599 62.9035 12.8738C70.8165 20.8028 74.775 31.3421 74.775 44.4903C74.775 57.5441 70.8101 68.0601 62.8687 76.0358C54.9274 84.0114 44.4123 87.9999 31.3262 87.9999H13.6388V80.3879H31.3262C42.3449 80.3879 51.0733 77.159 57.5243 70.7066C63.9727 64.2502 67.1982 55.5136 67.1982 44.4903C67.1982 33.4218 63.9843 24.6709 57.5591 18.2418C51.139 11.8113 42.3925 8.5954 31.3262 8.5954H13.6388ZM0 87.9999H7.57681V0.983398H0V87.9999Z" fill="#272929"/>
</g>
</svg>
